<?xml version="1.0" encoding="utf-8"?>
<!-- Generator: Adobe Illustrator 26.0.2, SVG Export Plug-In . SVG Version: 6.00 Build 0)  -->
<svg version="1.1" id="Layer_1" xmlns="http://www.w3.org/2000/svg" xmlns:xlink="http://www.w3.org/1999/xlink" x="0px" y="0px"
	 viewBox="0 0 448 492.8" style="enable-background:new 0 0 448 492.8;" xml:space="preserve">
<style type="text/css">
	.st0{fill:#292929;}
</style>
<path class="st0" d="M222.2,0.1c-1.9,0.3-3.6,1.1-5.1,2.3l-41.8,31.7L129,33.7v0c-4.9-0.1-9.3,3-10.8,7.7l-15.6,46.9l-42,31.5
	c-3.9,2.9-5.6,8-4,12.6l15.6,46.9L56.6,226c-1.5,4.6,0.1,9.7,4,12.6l40.9,30.6L2.9,379c-2.9,3.2-3.7,7.9-2,11.9
	c1.7,4,5.6,6.7,9.9,6.9l99,5.2l31,82.6v0c1.6,4.1,5.3,6.9,9.7,7.2c4.4,0.3,8.5-2,10.6-5.8l63-116.4L287,487
	c2.1,3.8,6.2,6.1,10.6,5.8c4.4-0.3,8.1-3.1,9.7-7.2l31-82.6l99-5.2v0c4.4-0.2,8.2-2.8,9.9-6.9c1.7-4,0.9-8.6-2-11.9l-98.7-109.7
	l40.9-30.6c3.9-2.9,5.6-8,4-12.6l-15.6-46.7l15.6-46.9c1.5-4.6-0.1-9.7-4-12.6l-42-31.5l-15.6-46.9c-1.5-4.7-5.9-7.8-10.8-7.7
	l-46.4,0.4L230.8,2.4v0C228.4,0.5,225.3-0.3,222.2,0.1L222.2,0.1z M224,25.5l38,28.7c2,1.5,4.5,2.3,7,2.3l42.2-0.4l14,42.7
	c0.8,2.2,2.2,4.1,4,5.4l38.3,28.7l-14.2,42.7h0c-0.8,2.3-0.8,4.9,0,7.2l14.2,42.7l-38.3,28.7l0,0c-1.9,1.4-3.3,3.4-4,5.6l-14,42.7
	L269,302v0c-2.5-0.1-5,0.8-7,2.3l-38,28.9l-38-28.9c-2-1.5-4.5-2.3-7-2.3l-42.2,0.5l-14-42.7l0,0c-0.7-2.2-2.1-4.2-4-5.6l-38.3-28.7
	l14.2-42.7v0c0.8-2.3,0.8-4.8,0-7.2l-14.2-42.7l38.3-28.7c1.9-1.4,3.3-3.2,4-5.4l14-42.7l42.2,0.4h0c2.5,0.1,5-0.8,7-2.3L224,25.5z
	 M110.3,293.2l7.9,24c1.5,4.7,5.9,7.8,10.8,7.7l46.4-0.5l34.3,26.1l-56.5,104.3l-25-66.7c-1.6-4.2-5.5-7-10-7.2l-82.9-4.4
	L110.3,293.2z M337.7,293.2l75,83.3l-82.9,4.4c-4.5,0.2-8.4,3-10,7.2l-25,66.7l-56.5-104.3l34.3-26.1l46.4,0.5v0
	c4.9,0.1,9.3-3,10.8-7.7L337.7,293.2z"/>
</svg>
