<?xml version="1.0" encoding="utf-8"?>
<!-- Generator: Adobe Illustrator 26.0.2, SVG Export Plug-In . SVG Version: 6.00 Build 0)  -->
<svg version="1.1" id="Layer_1" xmlns="http://www.w3.org/2000/svg" xmlns:xlink="http://www.w3.org/1999/xlink" x="0px" y="0px"
	 viewBox="0 0 544.2 542.9" style="enable-background:new 0 0 544.2 542.9;" xml:space="preserve">
<style type="text/css">
	.st0{fill:#292929;}
</style>
<g>
	<path class="st0" d="M272.1,357.6c36.2,0,66.7-29.6,66.7-65.9c0-36.2-29.6-65.9-66.7-65.9c-36.2,0-66.7,29.6-66.7,65.9
		C205.4,328.8,235.8,357.6,272.1,357.6z M272.1,243.2c27.2,0,50.2,22.2,50.2,49.4S300.1,342,272.1,342c-27.2,0-50.2-22.2-50.2-49.4
		S244.9,243.2,272.1,243.2z"/>
	<path class="st0" d="M225.9,101.5l-8.2,46.9c-0.8,3.3,0.8,6.6,3.3,8.2c2.5,1.6,5.8,2.5,9.1,0.8l42.8-22.2l42.8,22.2
		c2.5,1.6,5.8,0.8,9.1-0.8c2.5-1.6,4.1-4.9,3.3-8.2l-8.2-46.9l34.6-33.8c2.5-2.5,3.3-5.8,2.5-8.2c-0.8-3.3-3.3-4.9-6.6-5.8
		l-47.8-6.6L281.1,4.3c-2.5-5.8-12.4-5.8-14.8,0l-21.4,42.8l-47.8,6.6c-3.3,0.8-5.8,2.5-6.6,5.8c-0.8,3.3,0,6.6,2.5,8.2L225.9,101.5
		z M249.8,62.8c2.5,0,4.9-2.5,6.6-4.1l15.6-32.9l15.6,32.1c0.8,2.5,3.3,4.1,6.6,4.1l35.4,5.8l-25.5,24.7c-1.6,1.6-2.5,4.9-2.5,7.4
		l5.8,35.4l-31.3-16.5c-0.8-0.8-2.5-0.8-4.1-0.8c-1.6,0-2.5,0-4.1,0.8l-31.3,16.5l5.8-35.4c0.8-2.5-0.8-5.8-2.5-7.4l-25.5-24.7
		L249.8,62.8z"/>
	<path class="st0" d="M134.5,202.8c2.5-1.6,4.1-4.9,3.3-8.2l-8.2-46.9l34.6-33.8c2.5-2.5,3.3-5.8,2.5-8.2c-0.8-3.3-3.3-4.9-6.6-5.8
		l-47.8-6.6L90.9,49.6c-1.6-2.5-4.1-4.9-7.4-4.9s-5.8,1.6-7.4,4.9L54.7,92.4L6.9,99c-3.3,0.8-5.8,2.5-6.6,5.8
		c-0.8,3.3,0,6.6,2.5,8.2l34.6,34.6l-8.2,46.9c-0.8,3.3,0.8,6.6,3.3,8.2c2.5,1.6,5.8,2.5,9.1,0.8l42.8-22.2l42.8,22.2
		C128.8,205.3,132.1,204.4,134.5,202.8L134.5,202.8z M87.6,164.1c-2.5-1.6-4.9-1.6-7.4,0l-31.3,16.5l5.8-35.4
		c0.8-2.5-0.8-5.8-2.5-7.4L26.7,113l35.4-4.9c2.5,0,4.9-2.5,6.6-4.1l15.6-32.1L100,104c0.8,2.5,3.3,4.1,6.6,4.1L142,113l-25.5,24.7
		c-1.6,1.6-2.5,4.9-2.5,7.4l5.8,35.4L87.6,164.1z"/>
	<path class="st0" d="M543.8,105.6c-0.8-3.3-3.3-4.9-6.6-5.8l-47.8-6.6l-21.4-42.8c-2.5-5.8-12.4-5.8-14.8,0l-21.4,42.8l-47.8,6.6
		c-3.3,0.8-5.8,2.5-6.6,5.8c-0.8,3.3,0,6.6,2.5,8.2l34.6,33.8l-8.2,46.9c-0.8,3.3,0.8,6.6,3.3,8.2c2.5,1.6,5.8,2.5,9.1,0.8
		l42.8-22.2l42.8,22.2c2.5,1.6,5.8,0.8,9.1-0.8c2.5-1.6,4.1-4.9,3.3-8.2l-8.2-46.9l34.6-33.8C543.8,111.4,544.7,108.1,543.8,105.6
		L543.8,105.6z M492,138.6c-1.6,1.6-2.5,4.9-2.5,7.4l5.8,35.4L464,164.9c-0.8-0.8-2.5-0.8-4.1-0.8s-2.5,0-4.1,0.8l-31.3,16.5
		l5.8-35.4c0.8-2.5-0.8-5.8-2.5-7.4l-25.5-24.7l35.4-4.9c2.5,0,4.9-2.5,6.6-4.1l15.6-32.1l15.6,32.1c0.8,2.5,3.3,4.1,6.6,4.1
		l35.4,4.9L492,138.6z"/>
	<path class="st0" d="M426.9,349.4h-7.4c1.6-9.1,2.5-18.9,2.5-28.8c0-82.4-67.5-149.9-149.9-149.9s-149.9,66.7-149.9,149.9
		c0,82.4,66.7,149.9,149.9,149.9c20.6,0,40.4-4.1,59.3-12.4c5.8,47.8,46.1,84.8,95.5,84.8c53.5,0,96.4-43.6,96.4-96.4
		C523.2,393,480.4,349.4,426.9,349.4L426.9,349.4z M272.1,188c73.3,0,133.4,59.3,133.4,133.4c0,10.7-1.6,21.4-4.1,31.3
		c-18.1,4.9-34.6,15.6-46.9,29.6c-15.6-13.2-34.6-19.8-55.2-19.8h-54.4c-31.3,0-60.1,17.3-74.9,44.5c-19.8-23.9-31.3-53.5-31.3-84.8
		C138.7,248.1,198.8,188,272.1,188L272.1,188z M182.3,419.4c11.5-24.7,35.4-40.4,62.6-40.4h54.4c17.3,0,32.9,5.8,45.3,16.5
		c-8.2,13.2-13.2,28.8-14,45.3C282,464.7,223.5,457.3,182.3,419.4L182.3,419.4z M426.9,526.4c-44.5,0-79.9-36.2-79.9-79.9
		c0-43.6,36.2-79.9,79.9-79.9c43.6,0,79.9,36.2,79.9,79.9C506.8,490.2,471.4,526.4,426.9,526.4L426.9,526.4z"/>
	<path class="st0" d="M473,410.3L412.9,463l-23.1-27.2c-3.3-3.3-8.2-4.1-11.5-0.8c-3.3,3.3-4.1,8.2-0.8,11.5l28,33.8
		c1.6,1.6,3.3,2.5,5.8,3.3c2.5,0,4.1-0.8,5.8-1.6l66.7-58.5c3.3-3.3,4.1-8.2,0.8-11.5C481.2,407.9,476.3,407.9,473,410.3L473,410.3z
		"/>
</g>
</svg>
