<?xml version="1.0" encoding="utf-8"?>
<!-- Generator: Adobe Illustrator 26.0.2, SVG Export Plug-In . SVG Version: 6.00 Build 0)  -->
<svg version="1.1" id="Layer_1" xmlns="http://www.w3.org/2000/svg" xmlns:xlink="http://www.w3.org/1999/xlink" x="0px" y="0px"
	 viewBox="0 0 417.5 330.4" style="enable-background:new 0 0 417.5 330.4;" xml:space="preserve">
<style type="text/css">
	.st0{fill:#292929;}
</style>
<g>
	<path class="st0" d="M402.4,6c-64-8.6-131.1-6.2-195.7-3.7C141.5,4.8,76.9,11.6,12.3,21.4c-19.1,3.1-14.8,36.3,4.9,34.5
		C80,49.1,143.4,44.8,206.7,43.6c63.4-1.8,126.8,4.3,190.2,3.7C419.7,47.2,426.4,9.7,402.4,6L402.4,6z"/>
	<path class="st0" d="M402.4,143.2c-64-8.6-131.1-6.2-195.7-3.7c-65.2,2.5-129.9,9.2-194.5,19.1c-19.1,3.1-14.8,36.3,4.9,34.5
		c62.8-6.8,126.2-11.1,189.5-12.3c63.4-1.2,126.8,4.3,190.2,4.3C419.7,184.5,426.4,146.3,402.4,143.2L402.4,143.2z"/>
	<path class="st0" d="M402.4,280.5c-64-8.6-131.1-6.2-195.7-3.7c-65.2,2.5-129.9,9.2-194.5,19.1c-19.1,3.1-14.8,36.3,4.9,34.5
		c62.8-6.8,126.2-11.1,189.5-12.3c63.4-1.2,126.8,4.3,190.2,4.3C419.7,321.1,426.4,283.6,402.4,280.5L402.4,280.5z"/>
</g>
</svg>
