<?xml version="1.0" encoding="utf-8"?>
<!-- Generator: Adobe Illustrator 26.0.2, SVG Export Plug-In . SVG Version: 6.00 Build 0)  -->
<svg version="1.1" id="Layer_1" xmlns="http://www.w3.org/2000/svg" xmlns:xlink="http://www.w3.org/1999/xlink" x="0px" y="0px"
	 viewBox="0 0 555.8 445.4" style="enable-background:new 0 0 555.8 445.4;" xml:space="preserve">
<style type="text/css">
	.st0{fill:#292929;}
</style>
<path class="st0" d="M68,28.7c5,0,9.6,2,12.9,5.3c3.3,3.3,5.3,7.9,5.3,12.9s-2,9.6-5.3,12.9c-3.3,3.3-7.9,5.3-12.9,5.3
	c-5,0-9.6-2-12.9-5.3h0c-3.3-3.3-5.3-7.9-5.3-12.9c0-5,2-9.6,5.3-12.9h0C58.4,30.8,63,28.7,68,28.7z M198.8,310.4
	c-1.8,0-3.2-1.4-3.2-3.2c0-1.8,1.4-3.2,3.2-3.2H327c1.8,0,3.2,1.4,3.2,3.2c0,1.8-1.4,3.2-3.2,3.2H198.8z M290,267.2
	c1.8,0,3.2,1.4,3.2,3.2c0,1.8-1.4,3.2-3.2,3.2h-91.2c-1.8,0-3.2-1.4-3.2-3.2c0-1.8,1.4-3.2,3.2-3.2H290z M198.8,236.8
	c-1.8,0-3.2-1.4-3.2-3.2c0-1.8,1.4-3.2,3.2-3.2h147.6c1.8,0,3.2,1.4,3.2,3.2c0,1.8-1.4,3.2-3.2,3.2H198.8z M198.8,200.1
	c-1.8,0-3.2-1.4-3.2-3.2s1.4-3.2,3.2-3.2h122.9c1.8,0,3.2,1.4,3.2,3.2s-1.4,3.2-3.2,3.2H198.8z M412.6,150.7c-3.5,0-6.4-2.9-6.4-6.4
	c0-3.5,2.8-6.4,6.4-6.4c8.4,0,16.8,0,23.8,2.4c8.5,2.9,14.2,8.6,14.2,20.1v70.9c0,1.7,0.5,3,1.2,4c0.9,1.2,2.4,2.1,4.1,2.8
	c1.8,0.8,3.3,2,4.3,3.6c1.1,1.6,1.6,3.5,1.6,5.4s-0.6,3.8-1.6,5.4c-1,1.6-2.5,2.8-4.3,3.6c-1.7,0.7-3.1,1.7-4.1,2.8
	c-0.8,1-1.2,2.3-1.2,4V334c0,11.5-5.7,17.2-14.2,20.1c-7,2.4-15.4,2.4-23.8,2.4c-3.5,0-6.4-2.8-6.4-6.4s2.8-6.4,6.4-6.4
	c7.4,0,14.8,0,19.7-1.7c3.3-1.1,5.6-3.4,5.6-8.1V263c0-4.8,1.5-8.7,4-11.9c1.2-1.5,2.6-2.9,4.2-4c-1.6-1.1-3-2.4-4.2-4
	c-2.5-3.2-4-7.1-4-11.9v-70.9c0-4.6-2.2-6.9-5.6-8.1C427.4,150.7,420,150.7,412.6,150.7L412.6,150.7z M143.2,138
	c3.5,0,6.4,2.8,6.4,6.4c0,3.5-2.9,6.4-6.4,6.4c-7.4,0-14.8,0-19.7,1.7c-3.3,1.1-5.6,3.4-5.6,8.1v70.9c0,4.8-1.5,8.7-4,11.9
	c-1.2,1.5-2.6,2.9-4.2,4c1.6,1.1,3,2.4,4.2,4c2.5,3.2,4,7.1,4,11.9V334c0,4.6,2.2,7,5.6,8.1c4.9,1.7,12.3,1.7,19.7,1.7
	c3.5,0,6.4,2.8,6.4,6.4s-2.9,6.4-6.4,6.4c-8.4,0-16.8,0-23.8-2.4c-8.5-2.9-14.2-8.7-14.2-20.1V263c0-1.7-0.5-3-1.2-4
	c-0.9-1.2-2.4-2.1-4.1-2.8c-1.8-0.8-3.3-2-4.3-3.6c-1.1-1.6-1.6-3.4-1.6-5.4s0.6-3.8,1.6-5.4c1-1.6,2.5-2.8,4.3-3.6
	c1.7-0.7,3.1-1.7,4.1-2.8c0.8-1,1.2-2.3,1.2-4v-70.9c0-11.5,5.7-17.2,14.2-20.1C126.3,138,134.7,138,143.2,138L143.2,138z
	 M198.8,164.4c-2.3,0-4.2-1.9-4.2-4.2c0-2.3,1.9-4.2,4.2-4.2H357c2.3,0,4.2,1.9,4.2,4.2s-1.9,4.2-4.2,4.2H198.8z M40.2,0h475.3
	c11.1,0,21.1,4.5,28.4,11.8c7.3,7.3,11.8,17.3,11.8,28.4v365c0,11.1-4.5,21.1-11.8,28.4c-7.3,7.3-17.3,11.8-28.4,11.8H40.2
	c-11.1,0-21.1-4.5-28.4-11.8C4.5,426.3,0,416.3,0,405.2v-365c0-11.1,4.5-21.1,11.8-28.4C19.1,4.5,29.1,0,40.2,0L40.2,0z M515.5,12.7
	H40.2c-7.6,0-14.4,3.1-19.4,8.1c-5,5-8.1,11.9-8.1,19.4V86H543V40.2c0-7.6-3.1-14.4-8.1-19.4C530,15.8,523.1,12.7,515.5,12.7
	L515.5,12.7z M12.7,94.5v310.7c0,7.6,3.1,14.4,8.1,19.4c5,5,11.9,8.1,19.4,8.1h475.3c7.6,0,14.4-3.1,19.4-8.1c5-5,8.1-11.9,8.1-19.4
	V94.5H12.7z M182.6,28.7c5,0,9.6,2,12.9,5.3c3.3,3.3,5.3,7.9,5.3,12.9s-2,9.6-5.3,12.9c-3.3,3.3-7.9,5.3-12.9,5.3
	c-5,0-9.6-2-12.9-5.3h0c-3.3-3.3-5.3-7.9-5.3-12.9c0-5,2-9.6,5.3-12.9h0C173,30.8,177.5,28.7,182.6,28.7z M190.9,38.6
	c-2.1-2.1-5.1-3.5-8.4-3.5c-3.3,0-6.2,1.3-8.4,3.5l0,0c-2.1,2.1-3.5,5.1-3.5,8.4c0,3.3,1.3,6.2,3.5,8.4l0,0c2.1,2.1,5.1,3.5,8.4,3.5
	c3.3,0,6.2-1.3,8.4-3.5c2.1-2.1,3.5-5.1,3.5-8.4S193.1,40.7,190.9,38.6L190.9,38.6z M125.3,28.7c5,0,9.6,2,12.9,5.3
	s5.3,7.9,5.3,12.9s-2,9.6-5.3,12.9c-3.3,3.3-7.9,5.3-12.9,5.3s-9.6-2-12.9-5.3c-3.3-3.3-5.3-7.9-5.3-12.9c0-5,2-9.6,5.3-12.9
	S120.3,28.7,125.3,28.7z M133.7,38.6c-2.1-2.1-5.1-3.5-8.4-3.5c-3.3,0-6.2,1.3-8.4,3.5c-2.1,2.1-3.5,5.1-3.5,8.4
	c0,3.3,1.3,6.2,3.5,8.4c2.1,2.1,5.1,3.5,8.4,3.5c3.3,0,6.2-1.3,8.4-3.5c2.1-2.1,3.5-5.1,3.5-8.4S135.8,40.7,133.7,38.6z M76.4,38.6
	c-2.1-2.1-5.1-3.5-8.4-3.5c-3.3,0-6.2,1.3-8.4,3.5l0,0c-2.1,2.1-3.5,5.1-3.5,8.4c0,3.3,1.3,6.2,3.5,8.4l0,0c2.1,2.1,5.1,3.5,8.4,3.5
	c3.3,0,6.2-1.3,8.4-3.5c2.1-2.1,3.5-5.1,3.5-8.4S78.6,40.7,76.4,38.6L76.4,38.6z"/>
</svg>
